<?xml version="1.0" encoding="utf-8"?>
<!-- Generator: Adobe Illustrator 24.2.3, SVG Export Plug-In . SVG Version: 6.00 Build 0)  -->
<svg version="1.1" id="Layer_1" xmlns="http://www.w3.org/2000/svg" xmlns:xlink="http://www.w3.org/1999/xlink" x="0px" y="0px"
	 viewBox="0 0 212 292" style="enable-background:new 0 0 212 292;" xml:space="preserve">
<path d="M167.34,185.67l-8.12-8.12c0.28-0.52,0.58-1.03,0.84-1.58c3.86-7.86,5.8-17.93,5.8-30.23V68.56c0-1.39-0.38-2.47-1.14-3.23
	c-0.76-0.76-1.78-1.14-3.04-1.14h-1.13h-2.3h-25.59h-2.51h-0.91c-1.27,0-2.31,0.38-3.14,1.14c-0.83,0.76-1.23,1.84-1.23,3.23v77.75
	c0,14.19-3.33,24.65-9.98,31.37c-1.8,1.82-3.79,3.37-5.94,4.7c2.54,0.41,5.22,0.62,8.05,0.62c3.79,0,7.3-0.41,10.57-1.17
	c1.28-1.81,2.44-3.76,3.47-5.86c3.86-7.86,5.8-17.93,5.8-30.23V72.59h17.04v73.72c0,14.19-3.33,24.65-9.98,31.37
	c-6.65,6.72-15.62,10.08-26.9,10.08c-11.41,0-20.43-3.36-27.09-10.08c-6.65-6.72-9.98-17.17-9.98-31.37v-72.7v-4.83v-0.22
	c0-1.39-0.38-2.47-1.14-3.23c-0.76-0.76-1.84-1.14-3.23-1.14h-0.94h-2.49H46.54h-2.32h-1.1c-1.27,0-2.28,0.38-3.04,1.14
	c-0.76,0.76-1.14,1.84-1.14,3.23v0.22v4.83v72.12c0,12.29,1.96,22.37,5.89,30.23c3.93,7.86,9.53,13.69,16.82,17.49
	c7.27,3.79,16.02,5.69,26.25,5.7c-0.67-0.31-1.34-0.61-1.99-0.95c-6-3.13-10.84-7.66-14.57-13.54c-3.96-1.66-7.46-3.97-10.46-6.99
	c-6.65-6.72-9.98-17.17-9.98-31.37v-72.7v-1.03h17.04v1.03v72.12c0,12.29,1.96,22.37,5.89,30.23c3.93,7.86,9.53,13.69,16.82,17.49
	c7.29,3.8,16.06,5.7,26.33,5.7c10.39,0,19.2-1.9,26.42-5.7c1.53-0.81,2.98-1.73,4.36-2.72l7.24,7.24c1.57,1.57,4.12,1.57,5.69,0
	l6.62-6.62C168.91,189.79,168.91,187.24,167.34,185.67z"/>
</svg>
